<?xml version="1.0" standalone="no"?>
<!DOCTYPE svg PUBLIC "-//W3C//DTD SVG 20010904//EN"
 "http://www.w3.org/TR/2001/REC-SVG-20010904/DTD/svg10.dtd">
<svg version="1.0" xmlns="http://www.w3.org/2000/svg"
 width="800.000000pt" height="297.000000pt" viewBox="0 0 800.000000 297.000000"
 preserveAspectRatio="xMidYMid meet">

<g transform="translate(0.000000,297.000000) scale(0.100000,-0.100000)"
fill="#000000" stroke="none">
<path d="M4960 1510 l0 -1130 200 0 200 0 0 290 c0 160 3 290 8 289 4 0 115
-131 247 -290 l240 -289 254 0 c239 0 253 1 240 17 -8 10 -149 179 -313 377
-165 198 -299 365 -299 371 0 6 134 173 299 371 164 198 305 367 313 377 13
16 -1 17 -241 17 l-254 0 -239 -290 c-132 -159 -243 -290 -247 -290 -5 0 -8
295 -8 655 l0 655 -200 0 -200 0 0 -1130z"/>
<path d="M757 1919 c-126 -30 -246 -99 -342 -193 -96 -95 -150 -182 -197 -316
-32 -93 -33 -99 -33 -265 0 -166 1 -172 33 -265 46 -132 101 -221 196 -315
229 -227 591 -285 846 -135 36 21 74 47 84 59 11 12 23 21 28 21 4 0 8 -29 8
-65 l0 -65 200 0 200 0 0 765 0 765 -200 0 -200 0 0 -65 c0 -36 -3 -65 -6 -65
-3 0 -24 15 -45 34 -50 43 -147 91 -224 111 -83 21 -249 19 -348 -6z m318
-355 c116 -30 204 -102 255 -209 74 -157 61 -341 -35 -480 -73 -106 -179 -159
-315 -159 -109 1 -180 27 -254 95 -98 89 -140 191 -140 334 0 139 41 242 133
328 56 52 91 72 163 91 70 19 121 19 193 0z"/>
<path d="M2535 1920 c-368 -96 -605 -431 -582 -820 27 -434 346 -749 762 -752
153 -1 264 35 382 123 l52 39 3 -63 3 -62 203 -3 202 -2 0 765 0 765 -202 -2
-203 -3 -3 -62 -3 -63 -52 39 c-66 49 -114 73 -201 100 -90 28 -259 28 -361 1z
m351 -366 c110 -35 207 -141 246 -267 27 -90 22 -234 -11 -320 -41 -105 -131
-195 -233 -234 -27 -10 -77 -16 -134 -17 -86 0 -95 2 -166 37 -148 73 -228
210 -228 392 0 304 250 499 526 409z"/>
<path d="M6875 1925 c-224 -49 -388 -180 -485 -386 -95 -203 -105 -502 -26
-731 101 -289 360 -458 700 -458 337 0 583 158 691 444 14 37 25 71 25 76 0 6
-76 10 -198 10 l-199 0 -32 -50 c-35 -53 -68 -81 -128 -107 -92 -38 -254 -33
-341 11 -84 43 -145 131 -158 230 l-7 46 545 0 545 0 7 69 c7 80 -7 236 -30
325 -8 33 -36 103 -60 155 -87 179 -251 309 -453 360 -100 25 -298 28 -396 6z
m330 -326 c111 -42 185 -128 201 -236 l7 -43 -352 0 -352 0 7 38 c21 119 102
212 217 248 68 21 207 18 272 -7z"/>
<path d="M4533 1919 c-105 -18 -219 -71 -297 -140 l-36 -31 0 81 0 81 -205 0
-205 0 0 -765 0 -765 205 0 205 0 0 379 c0 420 6 485 58 587 38 75 91 126 167
160 49 23 77 28 160 32 55 2 119 -1 143 -6 l42 -10 -2 192 -3 191 -55 12 c-65
13 -106 14 -177 2z"/>
</g>
</svg>
