<?xml version="1.0" standalone="no"?>
<!DOCTYPE svg PUBLIC "-//W3C//DTD SVG 20010904//EN"
 "http://www.w3.org/TR/2001/REC-SVG-20010904/DTD/svg10.dtd">
<svg version="1.0" xmlns="http://www.w3.org/2000/svg"
 width="204.000000pt" height="129.000000pt" viewBox="0 0 204.000000 129.000000"
 preserveAspectRatio="xMidYMid meet">

<g transform="translate(0.000000,129.000000) scale(0.100000,-0.100000)"
fill="#000000" stroke="none">
<path d="M1807 1268 c-41 -24 -77 -87 -77 -134 0 -45 40 -116 78 -138 65 -37
159 -17 202 44 46 65 36 151 -25 210 -46 45 -121 52 -178 18z"/>
<path d="M365 908 c-134 -25 -261 -122 -321 -244 -32 -64 -37 -85 -42 -166 -8
-158 30 -259 132 -356 141 -134 347 -169 511 -88 85 42 155 111 155 153 0 21
-16 43 -66 90 -74 70 -104 78 -145 42 -42 -36 -78 -50 -135 -50 -43 -1 -63 4
-94 25 -51 34 -70 71 -71 144 -3 113 50 173 156 180 57 4 64 2 121 -37 34 -23
67 -41 74 -41 16 0 148 128 156 152 18 58 -126 170 -254 197 -61 13 -107 13
-177 -1z"/>
<path d="M1125 906 c-161 -40 -281 -167 -316 -334 -16 -77 -7 -213 19 -280 67
-174 196 -269 381 -280 223 -13 382 92 451 298 19 56 21 80 17 175 -6 146 -39
227 -126 314 -104 104 -271 145 -426 107z m202 -286 c99 -60 101 -243 4 -307
-49 -33 -94 -38 -147 -18 -67 25 -98 72 -102 155 -7 121 50 190 158 190 37 0
66 -6 87 -20z"/>
<path d="M1756 878 c-14 -19 -16 -76 -16 -415 0 -474 -14 -433 148 -433 93 0
111 3 125 18 15 17 17 60 17 419 0 375 -1 401 -18 416 -15 14 -40 17 -130 17
-103 0 -112 -2 -126 -22z"/>
</g>
</svg>
