<svg width="204" height="45" viewBox="0 0 204 45" fill="none" xmlns="http://www.w3.org/2000/svg">
<g clip-path="url(#clip0_537_579)" fill="#000000" stroke="none">
<path d="M22.6369 14.3992C30.6574 14.3992 37.1837 7.94621 37.2268 0H31.2967C31.2504 4.70326 27.3842 8.51849 22.6369 8.51849C17.8896 8.51849 14.0201 4.70326 13.9737 0H8.0437C8.08677 7.9495 14.6164 14.3992 22.6336 14.3992H22.6369Z"/>
<path d="M22.6269 30.6008C14.6097 30.6008 8.08335 37.0538 8.04028 45H13.9703C14.0167 40.2968 17.8828 36.4815 22.6335 36.4815C27.3841 36.4815 31.2503 40.2935 31.2966 45H37.2201C37.177 37.0505 30.6506 30.6008 22.6335 30.6008H22.6269Z" />
<path d="M0 8.54492V14.4322C4.73741 14.4783 8.58034 18.3165 8.58034 23.0296C8.58034 27.7428 4.73741 31.5843 0 31.6304V37.5177C8.00721 37.4749 14.5037 30.9923 14.5037 23.0296C14.5037 15.067 8.00721 8.58768 0 8.54492Z" />
<path d="M45.3268 8.5515C37.3195 8.59426 30.823 15.0736 30.823 23.0329C30.823 30.9923 37.3229 37.4716 45.3268 37.5144V31.6336C40.5893 31.5876 36.7464 27.7493 36.7464 23.0329C36.7464 18.3165 40.586 14.4783 45.3268 14.4322V8.54492V8.5515Z" />
<path d="M111.531 10.2385C104.654 10.2385 99.2668 15.6193 99.2668 22.4834C99.2668 29.3476 104.657 34.7284 111.531 34.7284C118.405 34.7284 123.845 29.3476 123.845 22.4834C123.845 15.6193 118.435 10.2385 111.531 10.2385ZM119.035 22.4834C119.035 26.7986 115.738 30.1797 111.531 30.1797C107.324 30.1797 104.074 26.871 104.074 22.4834C104.074 18.0959 107.347 14.7872 111.531 14.7872C115.715 14.7872 119.035 18.1683 119.035 22.4834Z" />
<path d="M138.399 10.2385C131.495 10.2385 126.085 15.6193 126.085 22.4834V40.2835H130.895V32.2649C133.019 33.8568 135.659 34.7284 138.399 34.7284C145.276 34.7284 150.666 29.3476 150.666 22.4834C150.666 15.6193 145.276 10.2385 138.399 10.2385ZM145.856 22.4834C145.856 26.7986 142.583 30.1797 138.399 30.1797C134.215 30.1797 130.895 26.7986 130.895 22.4834C130.895 18.1683 134.191 14.7872 138.399 14.7872C142.606 14.7872 145.856 18.0959 145.856 22.4834Z" />
<path d="M79.6147 12.7053C77.4912 11.1135 74.8508 10.2419 72.1111 10.2419C65.2335 10.2419 59.8435 15.6194 59.8435 22.4868C59.8435 29.3542 65.2335 34.7317 72.1111 34.7317C78.9886 34.7317 84.425 29.3542 84.425 22.4835V4.68677H79.6147V12.7053ZM79.6147 22.4868C79.6147 26.802 76.3184 30.183 72.1111 30.183C67.9037 30.183 64.6538 26.8743 64.6538 22.4868C64.6538 18.0993 67.9269 14.7906 72.1111 14.7906C76.2952 14.7906 79.6147 18.1683 79.6147 22.4868Z" />
<path d="M165.19 10.2385C158.286 10.2385 152.876 15.6193 152.876 22.4834V40.2835H157.689V32.2682C159.813 33.8601 162.45 34.7317 165.19 34.7317C172.067 34.7317 177.457 29.3509 177.457 22.4867C177.457 15.6226 172.067 10.2418 165.19 10.2418V10.2385ZM172.647 22.4834C172.647 26.7986 169.374 30.1797 165.19 30.1797C161.006 30.1797 157.746 26.8512 157.689 22.6084V22.3322C157.762 18.0894 161.032 14.7905 165.19 14.7905C169.347 14.7905 172.647 18.0992 172.647 22.4867V22.4834Z" />
<path d="M203.993 22.1973C203.841 15.468 198.487 10.2451 191.683 10.2451C184.878 10.2451 179.415 15.6259 179.415 22.49C179.415 29.3542 184.805 34.735 191.683 34.735C194.413 34.735 197.053 33.8469 199.19 32.2222V34.7317H204V22.194H203.993V22.1973ZM199.186 22.49C199.186 26.8052 195.89 30.1863 191.683 30.1863C187.475 30.1863 184.226 26.8052 184.226 22.49C184.226 18.1749 187.429 14.7938 191.683 14.7938C195.937 14.7938 199.186 18.1749 199.186 22.49Z"/>
<path d="M87.4302 18.5402V34.6332H92.2405V18.5402C92.2405 17.1391 93.39 15.9978 94.8013 15.9978H98.1606V11.2222H94.8013C90.7364 11.2222 87.4302 14.5046 87.4302 18.5402Z" />
</g>
<defs>
<clipPath id="clip0_537_579">
<rect width="204" height="45" fill="white"/>
</clipPath>
</defs>
</svg>
