<?xml version="1.0" standalone="no"?>
<!DOCTYPE svg PUBLIC "-//W3C//DTD SVG 20010904//EN"
 "http://www.w3.org/TR/2001/REC-SVG-20010904/DTD/svg10.dtd">
<svg version="1.0" xmlns="http://www.w3.org/2000/svg"
 width="256.000000pt" height="256.000000pt" viewBox="0 0 256.000000 256.000000"
 preserveAspectRatio="xMidYMid meet">

<g transform="translate(0.000000,256.000000) scale(0.100000,-0.100000)"
fill="#000000" stroke="none">
<path d="M1850 2193 c1 -82 27 -968 29 -980 1 -2 75 -3 166 -3 l165 0 0 75 c0
73 14 590 24 873 l5 142 -194 0 -195 0 0 -107z"/>
<path d="M1062 1910 c-108 -23 -216 -101 -265 -194 l-22 -41 -3 108 -3 107
-189 0 -190 0 0 -820 0 -820 190 0 190 0 1 303 c0 238 3 298 12 283 7 -10 31
-43 55 -72 109 -137 352 -179 529 -92 121 59 211 183 255 350 32 120 32 376 1
495 -53 198 -159 326 -310 373 -75 23 -192 32 -251 20z m55 -335 c89 -45 133
-131 141 -276 4 -79 1 -109 -16 -166 -37 -121 -121 -193 -227 -193 -145 0
-245 134 -245 330 0 247 167 394 347 305z"/>
<path d="M1966 1016 c-79 -30 -129 -100 -129 -182 0 -67 28 -120 82 -159 57
-40 157 -48 218 -16 110 56 144 191 74 288 -50 69 -160 100 -245 69z"/>
</g>
</svg>
