<?xml version="1.0" standalone="no"?>
<!DOCTYPE svg PUBLIC "-//W3C//DTD SVG 20010904//EN"
 "http://www.w3.org/TR/2001/REC-SVG-20010904/DTD/svg10.dtd">
<svg version="1.0" xmlns="http://www.w3.org/2000/svg"
 width="308.000000pt" height="88.000000pt" viewBox="0 0 308.000000 88.000000"
 preserveAspectRatio="xMidYMid meet">

<g transform="translate(0.000000,88.000000) scale(0.100000,-0.100000)"
fill="#000000" stroke="none">
<path d="M1040 500 l0 -310 80 0 80 0 -2 308 -3 307 -77 3 -78 3 0 -311z"/>
<path d="M1547 804 c-4 -4 -7 -53 -7 -110 l0 -102 -37 20 c-66 34 -159 9 -206
-54 -33 -45 -47 -91 -47 -153 0 -163 124 -265 255 -211 19 8 35 11 35 5 0 -5
36 -9 80 -9 l80 0 -2 308 -3 307 -70 3 c-39 1 -74 0 -78 -4z m-41 -312 c35
-23 46 -120 18 -160 -20 -29 -74 -30 -99 -2 -25 28 -26 107 -2 143 17 27 58
36 83 19z"/>
<path d="M2610 500 l0 -310 75 0 74 0 3 90 3 90 58 -86 c33 -47 64 -87 71 -90
7 -3 47 -4 88 -2 l75 3 -80 113 -79 112 76 95 c42 52 76 97 76 100 0 3 -38 5
-84 5 l-84 0 -58 -77 -59 -78 -3 173 -2 172 -75 0 -75 0 0 -310z"/>
<path d="M58 624 c-5 -4 -8 -137 -8 -296 l0 -288 85 0 85 0 0 64 c0 55 -3 66
-19 71 -28 9 -71 52 -71 71 0 15 5 13 28 -9 31 -30 100 -57 146 -57 90 0 171
49 211 129 27 54 18 175 -17 228 -46 71 -96 87 -278 91 -85 2 -158 1 -162 -4z
m282 -134 c37 -37 39 -122 4 -161 -17 -19 -60 -25 -80 -11 -21 14 -34 51 -34
97 0 77 64 121 110 75z"/>
<path d="M705 624 c-88 -23 -85 -20 -85 -89 l0 -64 35 15 c45 19 115 18 143
-2 24 -17 31 -50 8 -41 -68 26 -148 13 -198 -32 -26 -23 -32 -37 -36 -83 -4
-50 -2 -58 27 -91 39 -44 88 -62 150 -53 25 4 85 6 134 6 l87 -1 0 153 c0 184
-13 224 -80 258 -40 21 -145 34 -185 24z m106 -273 c20 -16 22 -23 13 -38 -29
-47 -114 -38 -114 12 0 43 61 58 101 26z"/>
<path d="M1883 613 c-51 -17 -105 -77 -121 -132 -38 -127 17 -249 131 -287 57
-19 156 -16 202 7 27 13 30 19 33 72 2 31 1 57 -1 57 -3 0 -21 -7 -40 -15 -81
-34 -187 -5 -187 51 0 2 59 4 130 4 l130 0 0 38 c0 164 -128 258 -277 205z
m122 -123 c10 -11 16 -23 13 -26 -3 -3 -32 -4 -64 -2 l-59 3 23 23 c27 27 63
28 87 2z"/>
<path d="M2305 616 c-61 -23 -95 -66 -95 -122 0 -83 25 -110 135 -142 77 -23
81 -46 10 -50 -37 -2 -62 3 -97 21 l-48 24 0 -64 0 -64 38 -17 c56 -25 196
-23 242 3 47 28 73 78 65 130 -9 57 -46 92 -127 116 -53 16 -68 25 -68 40 0
16 7 19 43 19 23 0 60 -9 82 -20 22 -11 41 -20 42 -20 2 0 3 27 3 61 0 60 0
60 -37 76 -54 22 -140 26 -188 9z"/>
</g>
</svg>
