<?xml version="1.0" encoding="UTF-8" standalone="no"?>
<!-- Created with Inkscape (http://www.inkscape.org/) -->

<svg
   version="1.1"
   id="svg68"
   width="440.95612"
   height="145.33334"
   viewBox="0 0 440.95612 145.33334"
   sodipodi:docname="phishar.png"
   xmlns:inkscape="http://www.inkscape.org/namespaces/inkscape"
   xmlns:sodipodi="http://sodipodi.sourceforge.net/DTD/sodipodi-0.dtd"
   xmlns="http://www.w3.org/2000/svg"
   xmlns:svg="http://www.w3.org/2000/svg">
  <defs
     id="defs72" />
  <sodipodi:namedview
     id="namedview70"
     pagecolor="#ffffff"
     bordercolor="#000000"
     borderopacity="0.25"
     inkscape:showpageshadow="2"
     inkscape:pageopacity="0.0"
     inkscape:pagecheckerboard="0"
     inkscape:deskcolor="#d1d1d1"
     showgrid="false" />
  <g
     inkscape:groupmode="layer"
     inkscape:label="Image"
     id="g74"
     transform="translate(-96.666671,-59.333332)">
    <path
       style="fill:#000000;stroke-width:0.666667"
       d="M 97.111117,204.22222 C 96.86667,203.97778 96.66667,180.27778 96.66667,151.55555 V 99.333333 H 101.33334 106 v 4.999997 c 0,2.75 0.15917,5 0.3537,5 0.19454,0 1.25283,-1.02404 2.35176,-2.27566 8.66436,-9.86815 27.60915,-12.344383 39.96121,-5.22323 7.3371,4.22995 12.70843,10.81178 15.36869,18.83223 1.87247,5.64534 2.03302,15.25463 0.35085,21 -3.46625,11.83884 -12.04226,20.3506 -23.51507,23.33888 -11.68556,3.0437 -24.27718,-0.24898 -32.10499,-8.39541 L 106,153.73141 v 25.46762 25.46764 h -4.22222 c -2.322223,0 -4.422223,-0.2 -4.666663,-0.44445 z m 45.020553,-49.09435 c 4.54316,-2.22276 8.72712,-6.62682 11.09418,-11.67777 1.59734,-3.40853 1.7731,-4.54314 1.7736,-11.4501 5.2e-4,-7.20573 -0.12408,-7.9272 -2.07255,-12 -2.67325,-5.58781 -6.09249,-9.01265 -11.54808,-11.56701 -3.8499,-1.80257 -5.06329,-2.04525 -10.04548,-2.00914 -7.33106,0.0531 -12.01433,1.80218 -16.9817,6.34208 -12.10553,11.06378 -10.83176,31.16153 2.55714,40.34684 4.78992,3.28607 8.43141,4.2328 15.46189,4.01982 4.99,-0.15117 6.6833,-0.49894 9.761,-2.00472 z m 158.45963,9.94478 c -5.316,-1.53484 -9.29794,-3.92944 -12.67058,-7.61966 -1.79375,-1.96265 -3.11821,-3.8001 -2.94323,-4.08322 0.17497,-0.28312 1.91032,-1.61134 3.85632,-2.9516 l 3.53817,-2.43683 3.98068,3.86005 c 4.48488,4.34898 7.2891,5.49194 13.47421,5.49194 9.40227,0 15.9054,-5.46259 14.48696,-12.16897 -0.97888,-4.62822 -4.7869,-6.86509 -16.31382,-9.58291 -15.95345,-3.7615 -21.06445,-8.60377 -20.56963,-19.4881 0.1991,-4.37969 0.55421,-5.71451 2.25572,-8.479 3.8567,-6.26607 11.69773,-9.89657 21.31391,-9.868603 8.59468,0.025 15.72647,3.049543 19.27926,8.176223 0.94641,1.36567 1.72074,2.79943 1.72074,3.18614 0,0.38672 -1.65613,1.80272 -3.68029,3.14669 l -3.68029,2.44358 -3.52274,-3.60821 c -2.97203,-3.04414 -4.09093,-3.72616 -7.15729,-4.36274 -3.70826,-0.76982 -9.21874,-0.19418 -11.90542,1.24369 -2.68761,1.43836 -4.72072,4.70469 -4.71814,7.58003 0.005,6.10728 3.10658,8.18138 17.21838,11.51614 7.77335,1.83691 11.43941,3.46232 14.67088,6.50458 3.84315,3.61812 5.08365,6.72414 5.09671,12.76146 0.0101,4.68773 -0.23056,5.77229 -1.98846,8.95954 -2.1655,3.92628 -5.75732,6.88521 -10.88285,8.96529 -4.02606,1.63388 -16.35398,2.11525 -20.8592,0.81449 z m 114.09719,-0.54572 c 0.37643,-0.83981 7.08345,-16.22693 14.90447,-34.1936 L 443.813,97.666667 h 4.19739 4.19739 l 14.48311,34.192343 14.48311,34.19234 -5.38238,-0.19234 -5.3824,-0.19234 -3.2825,-8.17814 -3.2825,-8.17815 -16.32742,0.17815 -16.32744,0.17814 -3.18772,8 -3.18772,8 -5.40492,0.19359 -5.40494,0.1936 z m 45.31153,-23.9084 c 0,-1.61166 -12.22795,-30.65488 -12.69719,-30.15774 -0.37813,0.40061 -9.61552,22.67556 -12.45721,30.03921 -0.25038,0.64881 2.49894,0.83333 12.4164,0.83333 8.61948,0 12.738,-0.23111 12.738,-0.7148 z m 30,-9.02318 V 97.190713 l 15.16667,0.319727 c 8.63988,0.18214 16.22165,0.650893 17.6182,1.089267 3.97196,1.246793 8.73891,4.838943 10.37958,7.821563 6.08112,11.05498 0.90879,24.35588 -10.77363,27.7049 -1.49829,0.42952 -2.81459,0.84228 -2.92513,0.91726 -0.11054,0.075 3.67344,6.41395 8.40885,14.08662 4.73541,7.67268 8.9614,14.60724 9.3911,15.41014 0.77506,1.4482 0.73666,1.45981 -4.82713,1.45981 h -5.60842 l -8.54835,-15 -8.54835,-15 h -5.20003 -5.20003 v 15 15 h -4.66667 -4.66666 z m 30.32453,-5.28164 c 3.73531,-1.84626 5.67572,-5.00788 5.67444,-9.24563 -0.001,-4.85067 -1.65096,-7.73021 -5.52989,-9.65371 -2.73758,-1.35752 -4.48787,-1.63486 -12.16667,-1.92788 l -8.96908,-0.34224 v 11.50353 11.50353 l 9.16667,-0.26194 c 7.41062,-0.21176 9.67583,-0.51361 11.82453,-1.57566 z M 180.66667,112 V 59.333333 h 4.66667 4.66667 v 25.0721 25.072107 l 3.04345,-3.38505 c 5.70747,-6.34809 14.9252,-9.483143 23.84152,-8.10877 6.23269,0.96072 9.76869,2.72858 13.26698,6.63299 5.40121,6.02825 5.45212,6.33976 5.70164,34.88329 l 0.21998,25.16667 h -4.65668 -4.65669 l -0.24297,-22.83334 c -0.25894,-24.33322 -0.43082,-25.69741 -3.84119,-30.48682 -3.34415,-4.69644 -13.44352,-6.4777 -20.06897,-3.53965 -5.98311,2.65321 -10.47261,8.89163 -11.88077,16.50905 -0.41035,2.21981 -0.7263,11.85098 -0.7263,22.13986 v 18.2109 h -4.66667 -4.66667 z m 78.66667,20 V 99.333333 h 4.66667 4.66667 V 132 164.66667 h -4.66667 -4.66667 z m 89.33334,-20 V 59.333333 h 4.66667 4.66666 v 24.698414 24.698413 l 3.3017,-3.3017 c 7.57398,-7.57398 18.78162,-9.84568 29.28552,-5.935953 7.0513,2.624613 11.3615,8.574573 12.74504,17.593713 0.4155,2.70867 0.6274,13.29821 0.51852,25.91378 l -0.18411,21.33333 -4.43289,0.1956 -4.43288,0.1956 -0.29829,-22.1956 c -0.24816,-18.46506 -0.48835,-22.78544 -1.42907,-25.70499 -2.23245,-6.92849 -7.56568,-10.53785 -15.40687,-10.42691 -7.81277,0.11055 -13.88853,4.32419 -17.57655,12.18963 l -1.75678,3.74667 -0.20132,21.16667 -0.20131,21.16667 h -4.63202 -4.63202 z M 260.51677,80.32708 c -2.33841,-1.31142 -3.18343,-2.946153 -3.18343,-6.158527 0,-6.985273 10.25594,-8.842591 12.74066,-2.307293 2.19396,5.77058 -4.2248,11.45634 -9.55723,8.46582 z"
       id="path359"
       sodipodi:nodetypes="sscccsscssssscccssssssscsssssssscsssssssssscssscsssssssscccccccccccccccssssssccssssssssccccccccccscsscccssccccccsssscccssssscccccccccccccccccccsssscccssssccccccssss" />
  </g>
</svg>
